<svg id="Layer_1" data-name="Layer 1" xmlns="http://www.w3.org/2000/svg" viewBox="0 0 721.68 381.92"><defs><style>.cls-1{fill:#f0f0f0;}.cls-2,.cls-4{fill:#0db5b3;}.cls-10,.cls-3,.cls-57,.cls-58,.cls-62,.cls-63,.cls-64,.cls-65,.cls-66,.cls-67,.cls-8{fill:none;}.cls-3,.cls-4,.cls-58,.cls-59,.cls-6,.cls-60,.cls-61,.cls-62,.cls-63,.cls-64,.cls-65,.cls-66,.cls-67,.cls-7{stroke:#fff;}.cls-10,.cls-3,.cls-4,.cls-58,.cls-6,.cls-60,.cls-61,.cls-62,.cls-65,.cls-67,.cls-7{stroke-linecap:round;}.cls-10,.cls-3,.cls-4,.cls-6,.cls-60,.cls-61,.cls-62,.cls-64,.cls-65,.cls-7,.cls-8{stroke-linejoin:round;}.cls-3,.cls-4,.cls-58,.cls-59,.cls-6,.cls-60,.cls-61,.cls-7{stroke-width:0.75px;}.cls-27,.cls-5,.cls-6{fill:#757575;}.cls-7{fill:#006161;}.cls-10,.cls-8{stroke:#a0a0a0;}.cls-9{fill:#a0a0a0;}.cls-10{stroke-dasharray:0 4 0 4 0 4;}.cls-11{font-size:7px;}.cls-11,.cls-37,.cls-49{font-family:IBMPlexSans, IBM Plex Sans;}.cls-12{letter-spacing:-0.01em;}.cls-13{letter-spacing:0em;}.cls-14{letter-spacing:-0.01em;}.cls-15{letter-spacing:-0.01em;}.cls-16{letter-spacing:0em;}.cls-17{letter-spacing:-0.01em;}.cls-18{letter-spacing:-0.02em;}.cls-19{letter-spacing:0em;}.cls-20{letter-spacing:0em;}.cls-21{letter-spacing:-0.01em;}.cls-22{letter-spacing:-0.01em;}.cls-23{letter-spacing:-0.04em;}.cls-24{letter-spacing:-0.02em;}.cls-25{letter-spacing:-0.02em;}.cls-26{letter-spacing:0.01em;}.cls-27{font-family:IBMPlexSans-Italic, IBM Plex Sans;font-style:italic;}.cls-28{fill:#eb4b86;}.cls-29,.cls-61{fill:#e3e3e3;}.cls-30,.cls-60{fill:#0f6dff;}.cls-31{letter-spacing:-0.02em;}.cls-32{letter-spacing:-0.01em;}.cls-33{letter-spacing:-0.01em;}.cls-34{letter-spacing:0em;}.cls-35,.cls-74{fill:#a11950;}.cls-36{fill:#fff;}.cls-36,.cls-57{stroke:#000;stroke-width:0.35px;}.cls-36,.cls-57,.cls-58,.cls-59,.cls-63,.cls-66,.cls-67{stroke-miterlimit:10;}.cls-37{font-size:8.13px;}.cls-38{letter-spacing:-0.02em;}.cls-39{letter-spacing:-0.01em;}.cls-40{letter-spacing:0em;}.cls-41{letter-spacing:0em;}.cls-42{letter-spacing:-0.01em;}.cls-43{font-size:18.1px;}.cls-43,.cls-68{font-family:IBMPlexSans-Bold, IBM Plex Sans;font-weight:700;}.cls-44{letter-spacing:-0.01em;}.cls-45{letter-spacing:0em;}.cls-46{letter-spacing:0em;}.cls-47{letter-spacing:-0.01em;}.cls-48{letter-spacing:-0.01em;}.cls-49{font-size:6.39px;}.cls-50{letter-spacing:0em;}.cls-51{letter-spacing:-0.01em;}.cls-52{letter-spacing:-0.01em;}.cls-53{letter-spacing:-0.01em;}.cls-54{letter-spacing:0em;}.cls-55{letter-spacing:-0.01em;}.cls-56{letter-spacing:-0.02em;}.cls-62,.cls-63{stroke-width:0.72px;}.cls-64,.cls-65,.cls-66,.cls-67{stroke-width:0.65px;}.cls-68{font-size:10px;}.cls-69{letter-spacing:-0.01em;}.cls-70{letter-spacing:0em;}.cls-71{letter-spacing:0em;}.cls-72{letter-spacing:-0.03em;}.cls-73{letter-spacing:0em;}.cls-74{opacity:0.5;}</style></defs><title>OCP_Docs_Diagram_Install_SW_2</title><rect class="cls-1" x="296.4" y="129.35" width="238.68" height="218.99"/><circle class="cls-2" cx="469.26" cy="158.46" r="18"/><line class="cls-3" x1="469.15" y1="160.64" x2="469.15" y2="145.12"/><line class="cls-3" x1="473.92" y1="158.26" x2="473.92" y2="145.12"/><line class="cls-3" x1="464.37" y1="158.26" x2="464.37" y2="145.12"/><polyline class="cls-3" points="480.55 159.25 469.18 152.69 457.8 159.25 457.8 164.82 469.18 171.39 480.55 164.82 480.55 159.25"/><polyline class="cls-3" points="457.8 159.25 469.18 165.82 480.55 159.25"/><circle class="cls-4" cx="469.15" cy="160.64" r="1.19"/><circle class="cls-4" cx="464.37" cy="158.26" r="1.19"/><circle class="cls-4" cx="473.92" cy="158.26" r="1.19"/><circle class="cls-5" cx="181.13" cy="230.91" r="18"/><polyline class="cls-6" points="190.53 228.57 172.87 228.57 172.87 230.6"/><polyline class="cls-6" points="173.61 240.62 190.53 240.62 190.53 228.57"/><line class="cls-7" x1="180.6" y1="222.6" x2="180.6" y2="240.62"/><circle class="cls-6" cx="180.6" cy="222.6" r="1.1"/><line class="cls-7" x1="185.75" y1="219.65" x2="185.75" y2="240.62"/><circle class="cls-6" cx="185.75" cy="219.65" r="1.1"/><line class="cls-7" x1="175.45" y1="225.72" x2="175.45" y2="240.62"/><circle class="cls-6" cx="175.45" cy="225.54" r="1.1"/><polygon class="cls-6" points="167.72 230.69 173.42 240.62 190.53 240.62 184.73 230.69 167.72 230.69"/><line class="cls-8" x1="159.83" y1="231.09" x2="126.72" y2="231.09"/><polygon class="cls-9" points="159.1 228.59 163.41 231.09 159.1 233.58 159.1 228.59"/><path class="cls-8" d="M213.43,254.17h4.31a12.7,12.7,0,0,0,12.7-12.71V194.65A12.71,12.71,0,0,1,243.15,182h1.53" transform="translate(-13.96 -23.22)"/><polygon class="cls-9" points="229.99 161.22 234.31 158.73 229.99 156.24 229.99 161.22"/><path class="cls-8" d="M284.21,326.3H308.1a12.69,12.69,0,0,0,12.7-12.7V228.79a12.7,12.7,0,0,1,12.71-12.7h18.88" transform="translate(-13.96 -23.22)"/><polygon class="cls-9" points="337.7 195.36 342.02 192.87 337.7 190.37 337.7 195.36"/><path class="cls-8" d="M393.19,215.3h22.89a12.69,12.69,0,0,0,12.7-12.7v-7.81a12.7,12.7,0,0,1,12.7-12.7h19.89" transform="translate(-13.96 -23.22)"/><polygon class="cls-9" points="446.68 161.36 451 158.87 446.68 156.37 446.68 161.36"/><path class="cls-10" d="M393.19,292.08h22.89a12.69,12.69,0,0,0,12.7-12.7V219.15" transform="translate(-13.96 -23.22)"/><polygon class="cls-9" points="417.32 196.66 414.83 192.35 412.33 196.66 417.32 196.66"/><path class="cls-8" d="M500.74,326.3h22.89a12.7,12.7,0,0,0,12.71-12.7V275.79a12.69,12.69,0,0,1,12.7-12.7h19.88" transform="translate(-13.96 -23.22)"/><polygon class="cls-9" points="554.23 242.36 558.55 239.87 554.23 237.37 554.23 242.36"/><line class="cls-8" x1="87.07" y1="231.09" x2="54.65" y2="231.09"/><polygon class="cls-9" points="86.34 228.59 90.66 231.09 86.34 233.58 86.34 228.59"/><line class="cls-8" x1="469.18" y1="281.46" x2="469.18" y2="198.34"/><polygon class="cls-9" points="471.68 280.73 469.18 285.04 466.69 280.73 471.68 280.73"/><line class="cls-8" x1="252.47" y1="208.92" x2="252.47" y2="198.2"/><polygon class="cls-9" points="254.96 208.19 252.47 212.5 249.98 208.19 254.96 208.19"/><line class="cls-8" x1="252.47" y1="281.56" x2="252.47" y2="263.83"/><polygon class="cls-9" points="254.96 280.83 252.47 285.15 249.98 280.83 254.96 280.83"/><line class="cls-10" x1="360.06" y1="251.04" x2="360.06" y2="233.32"/><polygon class="cls-9" points="362.55 250.31 360.06 254.63 357.57 250.31 362.55 250.31"/><line class="cls-10" x1="361.04" y1="252.74" x2="361.04" y2="270.85"/><polygon class="cls-9" points="358.55 253.47 361.04 249.15 363.54 253.47 358.55 253.47"/><rect class="cls-1" x="559.3" y="152.69" width="162.21" height="168.39"/><text class="cls-11" transform="translate(3.41 258.73)">Clu<tspan class="cls-12" x="10.23" y="0">s</tspan><tspan class="cls-13" x="13.59" y="0">t</tspan><tspan x="16.02" y="0">er admini</tspan><tspan class="cls-14" x="45.46" y="0">s</tspan><tspan x="48.82" y="0">t</tspan><tspan class="cls-13" x="51.28" y="0">r</tspan><tspan x="53.82" y="0">a</tspan><tspan class="cls-13" x="57.56" y="0">t</tspan><tspan x="59.99" y="0">or</tspan></text><text class="cls-11" transform="translate(148.29 258.73)">Openshift Container <tspan x="6.86" y="8.4">Pla</tspan><tspan class="cls-15" x="16.75" y="8.4">t</tspan><tspan class="cls-16" x="19.13" y="8.4">f</tspan><tspan x="21.37" y="8.4">orm p</tspan><tspan class="cls-17" x="39.69" y="8.4">r</tspan><tspan x="42.22" y="8.4">oject</tspan></text><text class="cls-11" transform="translate(430.3 186.43)">IBM Bloc<tspan class="cls-18" x="28.62" y="0">k</tspan><tspan class="cls-19" x="32.19" y="0">chain Pla</tspan><tspan class="cls-15" x="60.69" y="0">t</tspan><tspan class="cls-16" x="63.08" y="0">f</tspan><tspan x="65.32" y="0">orm</tspan><tspan x="25.45" y="8.4">ope</tspan><tspan class="cls-13" x="37.27" y="8.4">r</tspan><tspan class="cls-20" x="39.81" y="8.4">a</tspan><tspan class="cls-16" x="43.55" y="8.4">t</tspan><tspan x="45.98" y="8.4">or</tspan></text><text class="cls-11" transform="translate(430.3 330.7)">IBM Bloc<tspan class="cls-18" x="28.62" y="0">k</tspan><tspan class="cls-19" x="32.19" y="0">chain Pla</tspan><tspan class="cls-15" x="60.69" y="0">t</tspan><tspan class="cls-16" x="63.08" y="0">f</tspan><tspan x="65.32" y="0">orm</tspan><tspan class="cls-21"><tspan x="22.13" y="8.4">c</tspan><tspan class="cls-19" x="25.61" y="8.4">onsole UI</tspan></tspan></text><text class="cls-11" transform="translate(573.94 222.04)">Hyperled<tspan class="cls-22" x="28.72" y="0">g</tspan><tspan class="cls-19" x="32.37" y="0">er </tspan><tspan class="cls-23" x="40.44" y="0">F</tspan><tspan x="44.07" y="0">abric</tspan><tspan class="cls-24"><tspan x="22.68" y="8.4">P</tspan><tspan class="cls-19" x="26.78" y="8.4">eer</tspan></tspan></text><text class="cls-11" transform="translate(646.7 221.93)">Hyperled<tspan class="cls-22" x="28.72" y="0">g</tspan><tspan class="cls-19" x="32.37" y="0">er </tspan><tspan class="cls-23" x="40.44" y="0">F</tspan><tspan x="44.07" y="0">abric</tspan><tspan x="25.44" y="8.4">CA</tspan></text><circle cx="36.65" cy="230.95" r="18"/><text class="cls-11" transform="translate(335.55 220.43)">Doc<tspan class="cls-25" x="12.14" y="0">k</tspan><tspan x="15.71" y="0">er </tspan><tspan class="cls-17" x="23.77" y="0">r</tspan><tspan x="26.31" y="0">egi</tspan><tspan class="cls-12" x="35.59" y="0">s</tspan><tspan x="38.96" y="0">t</tspan><tspan class="cls-26" x="41.41" y="0">r</tspan><tspan x="44.05" y="0">y </tspan><tspan x="-3.55" y="8.4">c</tspan><tspan class="cls-17" x="-0.03" y="8.4">r</tspan><tspan x="2.51" y="8.4">edentials sec</tspan><tspan class="cls-17" x="43.91" y="8.4">r</tspan><tspan x="46.44" y="8.4">et</tspan></text><text class="cls-11" transform="translate(321.19 294.7)">IBM Bloc<tspan class="cls-18" x="28.62" y="0">k</tspan><tspan class="cls-19" x="32.19" y="0">chain Pla</tspan><tspan class="cls-15" x="60.69" y="0">t</tspan><tspan class="cls-16" x="63.08" y="0">f</tspan><tspan x="65.32" y="0">orm</tspan><tspan class="cls-21" x="9.49" y="8.4">c</tspan><tspan class="cls-19" x="12.97" y="8.4">onsole TLS sec</tspan><tspan class="cls-17" x="59.59" y="8.4">r</tspan><tspan x="62.13" y="8.4">et</tspan><tspan class="cls-27"><tspan x="25.69" y="16.8">O</tspan><tspan class="cls-17" x="30.44" y="16.8">p</tspan><tspan x="34.41" y="16.8">tional</tspan></tspan></text><circle class="cls-28" cx="360.15" cy="192.46" r="18"/><circle class="cls-2" cx="676.21" cy="194.27" r="18"/><text class="cls-11" transform="translate(76.84 258.75)">Openshift Container<tspan x="11.75" y="8.4">Pla</tspan><tspan class="cls-15" x="21.64" y="8.4">t</tspan><tspan class="cls-16" x="24.02" y="8.4">f</tspan><tspan x="26.26" y="8.4">orm CLI</tspan></text><circle class="cls-29" cx="108.72" cy="231.09" r="18"/><circle class="cls-28" cx="360.37" cy="267.04" r="18"/><circle class="cls-30" cx="469.11" cy="303.04" r="18"/><circle class="cls-2" cx="604.12" cy="194.27" r="18"/><text class="cls-11" transform="translate(234.27 258.73)">Clu<tspan class="cls-12" x="10.23" y="0">s</tspan><tspan class="cls-13" x="13.59" y="0">t</tspan><tspan x="16.02" y="0">er</tspan><tspan class="cls-31" x="22.43" y="0">R</tspan><tspan x="26.8" y="0">ole</tspan></text><text class="cls-11" transform="translate(225.79 186.43)">Security Con<tspan class="cls-13" x="39.57" y="0">t</tspan><tspan class="cls-32" x="42" y="0">e</tspan><tspan x="45.76" y="0">xt </tspan><tspan x="10.45" y="8.4">Con</tspan><tspan class="cls-14" x="22.69" y="8.4">s</tspan><tspan x="26.05" y="8.4">t</tspan><tspan class="cls-13" x="28.51" y="8.4">r</tspan><tspan x="31.05" y="8.4">aint</tspan></text><text class="cls-11" transform="translate(305.58 144.46)"><tspan class="cls-33">K</tspan><tspan x="4.37" y="0">uberne</tspan><tspan class="cls-13" x="26.63" y="0">t</tspan><tspan x="29.06" y="0">es ope</tspan><tspan class="cls-13" x="49.79" y="0">r</tspan><tspan x="52.33" y="0">ations</tspan></text><text class="cls-11" transform="translate(568.94 167.46)">Bloc<tspan class="cls-18" x="13.92" y="0">k</tspan><tspan class="cls-19" x="17.49" y="0">chain ope</tspan><tspan class="cls-34" x="47.92" y="0">r</tspan><tspan x="50.46" y="0">ations</tspan></text><text class="cls-11" transform="translate(222.33 330.7)">Clu<tspan class="cls-12" x="10.23" y="0">s</tspan><tspan class="cls-13" x="13.59" y="0">t</tspan><tspan x="16.02" y="0">er</tspan><tspan class="cls-31" x="22.43" y="0">R</tspan><tspan x="26.8" y="0">oleBinding</tspan></text><circle class="cls-35" cx="252.45" cy="158.46" r="18"/><circle class="cls-35" cx="253.16" cy="230.95" r="18"/><circle class="cls-35" cx="252.49" cy="303.04" r="18"/><polyline class="cls-36" points="0.58 48.92 721.51 48.92 721.51 12.85 0.58 12.85"/><text class="cls-37" transform="translate(0 6.9)">IBM Bloc<tspan class="cls-38" x="33.25" y="0">k</tspan><tspan x="37.4" y="0">chain Pla</tspan><tspan class="cls-39" x="70.5" y="0">t</tspan><tspan class="cls-40" x="73.28" y="0">f</tspan><tspan class="cls-41" x="75.88" y="0">orm</tspan></text><text class="cls-37" transform="translate(390.33 6.9)"><tspan class="cls-39">L</tspan><tspan x="3.99" y="0">e</tspan><tspan class="cls-42" x="8.46" y="0">g</tspan><tspan x="12.7" y="0">end</tspan></text><text class="cls-43" transform="translate(0 37.37)">Openshift Container Pl<tspan class="cls-44" x="192.83" y="0">a</tspan><tspan class="cls-45" x="203.02" y="0">t</tspan><tspan class="cls-46" x="209.95" y="0">f</tspan><tspan x="216.41" y="0">orm in</tspan><tspan class="cls-47" x="270.36" y="0">s</tspan><tspan class="cls-45" x="279.34" y="0">ta</tspan><tspan class="cls-48" x="296.57" y="0">l</tspan><tspan class="cls-45" x="301.91" y="0">l</tspan></text><text class="cls-49" transform="translate(539.18 40.63)">Inf<tspan class="cls-50" x="8.26" y="0">r</tspan><tspan x="10.58" y="0">a</tspan><tspan class="cls-51" x="14" y="0">s</tspan><tspan x="17.06" y="0">tructu</tspan><tspan class="cls-52" x="34.38" y="0">r</tspan><tspan x="36.69" y="0">e</tspan></text><text class="cls-49" transform="translate(539.22 25.36)">Mana<tspan class="cls-53" x="15.65" y="0">g</tspan><tspan class="cls-54" x="18.99" y="0">ement</tspan></text><circle class="cls-35" cx="461.98" cy="22.69" r="5.35"/><circle class="cls-28" cx="461.98" cy="38.26" r="5.35"/><text class="cls-49" transform="translate(407.7 25.4)">User</text><circle cx="395.95" cy="22.69" r="5.35"/><text class="cls-49" transform="translate(473.26 40.48)">Security</text><text class="cls-49" transform="translate(407.22 40.43)">Application</text><circle class="cls-5" cx="395.95" cy="37.77" r="5.35"/><circle class="cls-2" cx="528.02" cy="37.91" r="5.35"/><text class="cls-49" transform="translate(473.73 25.4)">Clu<tspan class="cls-55" x="9.34" y="0">s</tspan><tspan class="cls-50" x="12.41" y="0">t</tspan><tspan class="cls-54" x="14.63" y="0">er </tspan><tspan class="cls-56" x="21.99" y="0">P</tspan><tspan x="25.74" y="0">olicies</tspan></text><circle class="cls-30" cx="528.05" cy="23.18" r="5.35"/><line class="cls-57" x1="379.07" y1="48.92" x2="379.07" y2="12.85"/><text class="cls-11" transform="translate(610.53 294.78)">Hyperled<tspan class="cls-22" x="28.72" y="0">g</tspan><tspan class="cls-19" x="32.37" y="0">er </tspan><tspan class="cls-23" x="40.44" y="0">F</tspan><tspan x="44.07" y="0">abric</tspan><tspan x="17.69" y="8.4">O</tspan><tspan class="cls-22" x="22.64" y="8.4">r</tspan><tspan class="cls-19" x="25.17" y="8.4">de</tspan><tspan class="cls-17" x="33.07" y="8.4">r</tspan><tspan x="35.61" y="8.4">er</tspan></text><circle class="cls-2" cx="640.4" cy="266.92" r="18"/><path class="cls-58" d="M55.37,248.21a4.85,4.85,0,1,1-4.85-4.85,4.85,4.85,0,0,1,4.85,4.85" transform="translate(-13.96 -23.22)"/><path class="cls-58" d="M41.07,265a9.7,9.7,0,0,1,19-.13" transform="translate(-13.96 -23.22)"/><circle class="cls-58" cx="36.62" cy="231.09" r="14.32"/><circle class="cls-59" cx="41.07" cy="265.02" r="1.1" transform="translate(-157.19 46.98) rotate(-34.6)"/><path class="cls-3" d="M491.49,334.86a12.1,12.1,0,0,1-17.12-17.11" transform="translate(-13.96 -23.22)"/><path class="cls-3" d="M474.37,317.75a12.1,12.1,0,0,1,17.12,17.11" transform="translate(-13.96 -23.22)"/><line class="cls-3" x1="462.99" y1="297.9" x2="462.99" y2="302.32"/><line class="cls-3" x1="462.99" y1="308.22" x2="462.99" y2="303.79"/><line class="cls-3" x1="468.17" y1="303.07" x2="463.76" y2="303.07"/><line class="cls-3" x1="457.87" y1="303.07" x2="462.26" y2="303.07"/><line class="cls-3" x1="474.78" y1="297.92" x2="474.78" y2="302.34"/><line class="cls-3" x1="474.77" y1="308.24" x2="474.77" y2="303.81"/><line class="cls-3" x1="479.95" y1="303.07" x2="475.52" y2="303.07"/><line class="cls-3" x1="469.65" y1="303.07" x2="474.05" y2="303.07"/><line class="cls-3" x1="468.91" y1="303.81" x2="468.91" y2="308.24"/><line class="cls-3" x1="468.91" y1="314.11" x2="468.91" y2="309.71"/><line class="cls-3" x1="474.05" y1="308.98" x2="469.65" y2="308.98"/><line class="cls-3" x1="463.76" y1="308.96" x2="468.17" y2="308.96"/><line class="cls-3" x1="468.93" y1="302.34" x2="468.93" y2="297.92"/><line class="cls-3" x1="474.05" y1="297.18" x2="469.65" y2="297.18"/><line class="cls-3" x1="463.76" y1="297.18" x2="468.17" y2="297.18"/><line class="cls-3" x1="468.91" y1="296.45" x2="468.91" y2="292.03"/><rect class="cls-60" x="459.31" y="293.42" width="2.21" height="2.21"/><rect class="cls-60" x="476.43" y="310.54" width="2.21" height="2.21"/><polyline class="cls-3" points="102.51 220.34 96.67 230.6 102.51 240.86"/><polyline class="cls-3" points="114.93 240.86 120.77 230.6 114.93 220.34"/><circle class="cls-61" cx="114.83" cy="240.92" r="1.1"/><circle class="cls-61" cx="114.83" cy="220.28" r="1.1"/><circle class="cls-61" cx="102.6" cy="240.92" r="1.1"/><circle class="cls-61" cx="102.51" cy="220.37" r="1.1"/><line class="cls-3" x1="101.87" y1="225.12" x2="113.83" y2="225.12"/><line class="cls-3" x1="101.87" y1="236.08" x2="113.83" y2="236.08"/><line class="cls-3" x1="118.4" y1="230.6" x2="100.68" y2="230.6"/><circle class="cls-61" cx="113.83" cy="236.08" r="1.1"/><circle class="cls-61" cx="100.68" cy="230.6" r="1.1"/><circle class="cls-61" cx="113.83" cy="225.12" r="1.1"/><line class="cls-62" x1="607.5" y1="200.5" x2="610.81" y2="206.26"/><path class="cls-62" d="M622,221.67a5.45,5.45,0,1,0-7.87,0l1.21,1-4,6.82" transform="translate(-13.96 -23.22)"/><path class="cls-62" d="M622.71,203.62A15,15,0,0,0,609.19,230" transform="translate(-13.96 -23.22)"/><path class="cls-62" d="M626.92,230a15,15,0,0,0-1.48-25.16" transform="translate(-13.96 -23.22)"/><circle class="cls-63" cx="606.82" cy="199.32" r="1.36"/><circle class="cls-63" cx="611.71" cy="207.62" r="1.36"/><circle class="cls-63" cx="610.12" cy="180.92" r="1.36"/><path class="cls-63" d="M609.39,230.13a1,1,0,0,1,.2-.25,1.35,1.35,0,1,1-.2.25" transform="translate(-13.96 -23.22)"/><line class="cls-62" x1="643.71" y1="273.02" x2="647.02" y2="278.78"/><path class="cls-62" d="M658.19,294.19a5.45,5.45,0,1,0-7.87,0l1.21,1-4,6.82" transform="translate(-13.96 -23.22)"/><path class="cls-62" d="M658.92,276.14a15,15,0,0,0-13.52,26.37" transform="translate(-13.96 -23.22)"/><path class="cls-62" d="M663.13,302.51a15,15,0,0,0-1.48-25.16" transform="translate(-13.96 -23.22)"/><circle class="cls-63" cx="643.03" cy="271.84" r="1.36"/><circle class="cls-63" cx="647.92" cy="280.14" r="1.36"/><circle class="cls-63" cx="646.33" cy="253.43" r="1.36"/><path class="cls-63" d="M645.6,302.65a1,1,0,0,1,.2-.25,1.35,1.35,0,1,1-.2.25" transform="translate(-13.96 -23.22)"/><line class="cls-62" x1="679.39" y1="200.5" x2="682.7" y2="206.26"/><path class="cls-62" d="M693.87,221.67a5.45,5.45,0,1,0-7.87,0l1.21,1-4,6.82" transform="translate(-13.96 -23.22)"/><path class="cls-62" d="M694.6,203.62A15,15,0,0,0,681.08,230" transform="translate(-13.96 -23.22)"/><path class="cls-62" d="M698.8,230a15,15,0,0,0-1.47-25.16" transform="translate(-13.96 -23.22)"/><circle class="cls-63" cx="678.71" cy="199.32" r="1.36"/><circle class="cls-63" cx="683.6" cy="207.62" r="1.36"/><circle class="cls-63" cx="682.01" cy="180.92" r="1.36"/><path class="cls-63" d="M681.27,230.13a1.27,1.27,0,0,1,.21-.25,1.31,1.31,0,1,1-.21.25" transform="translate(-13.96 -23.22)"/><path class="cls-64" d="M279.11,182.72c-2.06,2.3-7.27,7.46-12.51,7.46-6.75,0-13.44-8.55-13.44-8.55s6.69-8.55,13.44-8.55c5.24,0,10.45,5.15,12.51,7.46" transform="translate(-13.96 -23.22)"/><circle class="cls-65" cx="252.64" cy="158.41" r="6.11"/><line class="cls-64" x1="251.39" y1="156.31" x2="246.53" y2="147.8"/><line class="cls-64" x1="255.09" y1="158.41" x2="264.65" y2="158.41"/><line class="cls-64" x1="251.46" y1="160.54" x2="246.49" y2="169.04"/><circle class="cls-66" cx="265.88" cy="158.51" r="1.23"/><circle class="cls-65" cx="245.92" cy="146.8" r="1.23"/><circle class="cls-65" cx="245.92" cy="170.12" r="1.23"/><circle class="cls-65" cx="252.64" cy="158.41" r="2.44"/><path class="cls-64" d="M279.11,255.35c-2.06,2.3-7.27,7.46-12.51,7.46-6.75,0-13.44-8.55-13.44-8.55s6.69-8.56,13.44-8.56c5.24,0,10.45,5.16,12.51,7.47" transform="translate(-13.96 -23.22)"/><circle class="cls-65" cx="252.64" cy="231.04" r="6.11"/><line class="cls-64" x1="251.39" y1="228.94" x2="246.53" y2="220.42"/><line class="cls-64" x1="255.09" y1="231.04" x2="264.65" y2="231.04"/><line class="cls-64" x1="251.46" y1="233.17" x2="246.49" y2="241.67"/><circle class="cls-66" cx="265.88" cy="231.14" r="1.23"/><circle class="cls-65" cx="245.92" cy="219.43" r="1.23"/><circle class="cls-65" cx="245.92" cy="242.75" r="1.23"/><circle class="cls-65" cx="252.64" cy="231.04" r="2.44"/><path class="cls-64" d="M279.11,327.37c-2.06,2.31-7.27,7.47-12.51,7.47-6.75,0-13.44-8.56-13.44-8.56s6.69-8.55,13.44-8.55c5.24,0,10.45,5.16,12.51,7.46" transform="translate(-13.96 -23.22)"/><circle class="cls-65" cx="252.64" cy="303.06" r="6.11"/><line class="cls-64" x1="251.39" y1="300.97" x2="246.53" y2="292.45"/><line class="cls-64" x1="255.09" y1="303.06" x2="264.65" y2="303.06"/><line class="cls-64" x1="251.46" y1="305.19" x2="246.49" y2="313.69"/><circle class="cls-66" cx="265.88" cy="303.16" r="1.23"/><circle class="cls-65" cx="245.92" cy="291.45" r="1.23"/><circle class="cls-65" cx="245.92" cy="314.77" r="1.23"/><circle class="cls-65" cx="252.64" cy="303.06" r="2.44"/><line class="cls-65" x1="371.87" y1="261.72" x2="362.35" y2="267.19"/><line class="cls-65" x1="372.03" y1="266.79" x2="362.35" y2="272.4"/><line class="cls-65" x1="367.99" y1="258.18" x2="362.34" y2="261.44"/><circle class="cls-66" cx="361.29" cy="267.79" r="1.23"/><path class="cls-65" d="M386.82,285.49c-.68,12.61-11.63,19-11.63,19s-11.66-6.83-11.66-20.25" transform="translate(-13.96 -23.22)"/><path class="cls-65" d="M363.53,284.26c2.55-1.46,11.66-6.75,11.66-6.75s8.07,4.56,10.61,6.12" transform="translate(-13.96 -23.22)"/><circle class="cls-66" cx="372.9" cy="261.04" r="1.23"/><circle class="cls-66" cx="361.29" cy="273.01" r="1.23"/><circle class="cls-66" cx="361.29" cy="262.07" r="1.23"/><path class="cls-67" d="M371.11,222.9c1.09-.07,2.24-.1,3.43-.1a46.9,46.9,0,0,1,8.68.72c2.22.44,3.6,1.06,3.6,1.74s-1.38,1.29-3.6,1.73a46,46,0,0,1-8.68.72c-.85,0-1.68,0-2.49-.05l-.94,0" transform="translate(-13.96 -23.22)"/><path class="cls-67" d="M364.35,226.63c-1.31-.4-2.08-.87-2.08-1.37,0-.68,1.37-1.3,3.59-1.74.79-.16,1.68-.29,2.65-.4" transform="translate(-13.96 -23.22)"/><path class="cls-67" d="M369.73,227.51" transform="translate(-13.96 -23.22)"/><path class="cls-67" d="M371.11,218c1.09-.06,2.24-.1,3.43-.1a46.9,46.9,0,0,1,8.68.72c2.22.44,3.6,1.06,3.6,1.74s-1.38,1.29-3.6,1.73a46,46,0,0,1-8.68.72c-.85,0-1.68,0-2.49-.05l-.94-.05" transform="translate(-13.96 -23.22)"/><path class="cls-67" d="M364.35,221.72c-1.31-.4-2.08-.87-2.08-1.37,0-.68,1.37-1.3,3.59-1.74.79-.16,1.68-.29,2.65-.4" transform="translate(-13.96 -23.22)"/><path class="cls-67" d="M369.73,222.61" transform="translate(-13.96 -23.22)"/><path class="cls-67" d="M371.11,213.08c1.09-.06,2.24-.1,3.43-.1a46.9,46.9,0,0,1,8.68.72c2.22.45,3.6,1.06,3.6,1.74s-1.38,1.29-3.6,1.73a46,46,0,0,1-8.68.72c-.85,0-1.68,0-2.49,0l-.94-.05" transform="translate(-13.96 -23.22)"/><path class="cls-67" d="M364.35,216.81c-1.31-.39-2.08-.87-2.08-1.37,0-.68,1.37-1.29,3.59-1.74.79-.16,1.68-.29,2.65-.4" transform="translate(-13.96 -23.22)"/><path class="cls-67" d="M369.73,217.7" transform="translate(-13.96 -23.22)"/><path class="cls-67" d="M371.11,208.17c1.09-.06,2.24-.1,3.43-.1a46.9,46.9,0,0,1,8.68.72c2.22.45,3.6,1.06,3.6,1.74s-1.38,1.29-3.6,1.73a46,46,0,0,1-8.68.72c-.85,0-1.68,0-2.49,0l-.94,0" transform="translate(-13.96 -23.22)"/><path class="cls-67" d="M364.35,211.9c-1.31-.39-2.08-.86-2.08-1.37,0-.68,1.37-1.29,3.59-1.74.79-.15,1.68-.29,2.65-.4" transform="translate(-13.96 -23.22)"/><path class="cls-67" d="M369.73,212.79" transform="translate(-13.96 -23.22)"/><circle class="cls-65" cx="355.78" cy="189.56" r="1.23"/><path class="cls-67" d="M364.35,207c-1.31-.39-2.08-.86-2.08-1.37,0-.68,1.37-1.29,3.59-1.74a52.68,52.68,0,0,1,17.36,0c2.22.45,3.6,1.06,3.6,1.74s-1.38,1.29-3.6,1.73a46,46,0,0,1-8.68.72c-.85,0-1.68,0-2.49,0l-1-.05" transform="translate(-13.96 -23.22)"/><path class="cls-67" d="M369.73,207.88" transform="translate(-13.96 -23.22)"/><circle class="cls-65" cx="355.78" cy="184.65" r="1.23"/><circle class="cls-65" cx="355.78" cy="194.47" r="1.23"/><circle class="cls-65" cx="355.78" cy="199.38" r="1.23"/><circle class="cls-65" cx="355.78" cy="204.28" r="1.23"/><text class="cls-68" transform="translate(126.74 79.13)">Openshift Container Pl<tspan class="cls-69" x="106.52" y="0">a</tspan><tspan x="112.15" y="0">t</tspan><tspan class="cls-70" x="115.98" y="0">f</tspan><tspan class="cls-71" x="119.55" y="0">orm</tspan></text><line class="cls-10" x1="108.72" y1="67.63" x2="108.72" y2="194.84"/><text class="cls-68" transform="translate(487.21 79.13)">IBM Bloc<tspan class="cls-72" x="42.05" y="0">k</tspan><tspan x="47.55" y="0">chain Pl</tspan><tspan class="cls-69" x="85.14" y="0">a</tspan><tspan x="90.77" y="0">t</tspan><tspan class="cls-73" x="94.6" y="0">f</tspan><tspan x="98.17" y="0">orm</tspan></text><line class="cls-10" x1="469.18" y1="67.63" x2="469.18" y2="122.7"/><line class="cls-10" x1="469.18" y1="357.15" x2="469.18" y2="381.42"/><line class="cls-10" x1="108.72" y1="283.37" x2="108.72" y2="381.42"/><rect class="cls-74" x="234.49" y="285.04" width="36" height="36"/></svg>